<svg xmlns="http://www.w3.org/2000/svg" viewBox="0 0 24 24" width="120" height="120">
  <path fill="#4a6da7" d="M19.35 10.04A7.49 7.49 0 0 0 12 4C9.11 4 6.6 5.64 5.35 8.04A5.994 5.994 0 0 0 0 14c0 3.31 2.69 6 6 6h13c2.76 0 5-2.24 5-5 0-2.64-2.05-4.78-4.65-4.96z"/>
  <path fill="#fff" d="M9 16h6v2H9z"/>
  <path fill="#fff" d="M13 12V8h-2v4H8l4 4 4-4z"/>
  <path fill="#ff6b6b" d="M20 0a4 4 0 1 0 0 8 4 4 0 0 0 0-8zm0 7a3 3 0 1 1 0-6 3 3 0 0 1 0 6z"/>
  <path fill="#ff6b6b" d="M19.5 3.5h1v2h-1z"/>
  <path fill="#ff6b6b" d="M19.5 1.5h1v1h-1z"/>
</svg>